<svg width="56" height="63" viewBox="0 0 56 63" fill="none" xmlns="http://www.w3.org/2000/svg">
<path fill-rule="evenodd" clip-rule="evenodd" d="M52.8993 59.9056C54.5579 58.9358 55.4541 57.0859 54.8105 53.7722C54.0261 49.7336 44.6402 48.7685 41.4461 49.0228C42.172 47.9072 43.8498 48.6133 43.1925 42.2193C42.6363 36.8037 40.8608 28.6163 39.0255 27.2348C37.7993 26.3126 35.6977 27.3877 31.9528 25.1058C30.9948 24.5221 30.8269 24.2566 30.8519 23.856C31.2419 23.4991 31.5575 23.0604 31.8041 22.5475C31.8576 22.6849 31.9184 22.8166 31.9861 22.9419C32.0723 23.101 32.1702 23.2492 32.2793 23.3844C32.7445 23.9587 33.8089 24.5103 33.5251 23.2944C33.0406 21.2163 32.8062 20.9799 33.3233 18.8801C33.4366 18.4193 33.6248 17.942 33.6742 17.5372C33.7777 16.6943 33.6963 15.903 32.7474 16.9884L33.073 13.8046C33.2992 11.5848 31.9847 9.65108 29.9782 8.81744C29.735 7.97674 29.1431 7.16247 28.787 6.63796C28.0257 5.51818 29.1679 5.58515 28.8588 3.57001L28.8429 3.46684C28.2693 -0.278013 27.2047 -0.278013 26.6306 3.46684L26.6147 3.57001C26.3056 5.58514 27.4484 5.51818 26.6871 6.63796C26.3309 7.16247 25.7387 7.97674 25.4958 8.81744C23.4894 9.65108 22.1743 11.5848 22.4011 13.8046L22.7267 16.9884C21.7778 15.903 21.6963 16.6943 21.7999 17.5372C21.8493 17.942 22.0375 18.4193 22.1508 18.8801C22.6679 20.9799 22.4335 21.2163 21.949 23.2944C21.6652 24.5103 22.7294 23.9587 23.1947 23.3844C23.3039 23.2492 23.4012 23.101 23.4879 22.9419C23.5556 22.8166 23.6159 22.6849 23.67 22.5475C23.9165 23.0604 24.2322 23.4991 24.6222 23.856C24.6472 24.2566 24.4787 24.5221 23.5212 25.1058C19.7764 27.3877 17.6747 26.3126 16.4485 27.2348C14.6133 28.6163 12.8396 36.8037 12.2796 42.2192C11.6257 48.6133 13.3006 47.9072 14.0298 49.0228C10.8353 48.7685 1.4492 49.7336 0.663528 53.7722C0.0190228 57.0859 0.917636 58.9358 2.57369 59.9056C8.18183 63.1769 47.2926 63.1769 52.9007 59.9056L52.8993 59.9056ZM18.0204 44.3862C18.1192 43.1018 18.5422 41.0368 18.779 39.3728C19.0658 37.3606 19.2207 37.2471 20.2097 39.2767C20.7736 40.4347 21.8931 43.6055 21.5077 45.017C21.3622 45.5489 20.9595 45.9538 19.9862 45.8738C19.9655 45.8738 18.1907 44.5135 18.0204 44.3862ZM37.4536 44.3862C37.2833 44.5135 35.5085 45.8738 35.4879 45.8738C34.514 45.9538 34.1118 45.5489 33.9663 45.017C33.5806 43.6055 34.7004 40.4347 35.2644 39.2767C36.2533 37.2471 36.4077 37.3606 36.6948 39.3728C36.9318 41.0367 37.3548 43.1018 37.4536 44.3862Z" fill="#00F0B5"/>
</svg>
