<svg width="67" height="71" viewBox="0 0 67 71" fill="none" xmlns="http://www.w3.org/2000/svg">
<path fill-rule="evenodd" clip-rule="evenodd" d="M33.51 1.29846C32.9864 1.042 32.3949 0.897026 31.7405 0.896483C29.7622 0.895578 28.3563 2.21789 27.6559 3.94706C27.2814 4.87065 27.0673 5.90718 26.9149 6.88995L26.8994 6.99312C26.7511 7.94675 26.7605 8.71867 26.927 9.51412C26.8023 9.71574 26.6834 9.91809 26.5714 10.1242C23.9029 11.8621 22.3248 14.8991 22.6608 18.1864L22.6933 18.5051C22.0604 19.5011 21.9156 20.7529 22.0675 21.995C22.1495 22.6628 22.3466 23.1557 22.4995 23.779C22.5431 23.9569 22.6975 24.5562 22.6819 24.742C22.6711 24.8667 22.6302 25.022 22.6019 25.1431C22.4999 25.5757 22.3884 26.0059 22.2872 26.439C22.2445 26.622 22.2115 26.8061 22.1884 26.9896C21.0206 27.1098 20.0482 27.1534 18.8721 27.7888C18.4956 27.9941 18.5474 27.9573 18.1898 28.2281C16.5714 29.4434 15.668 31.6662 15.0424 33.5314C14.3414 35.6289 13.8285 37.847 13.4098 40.0177C13.0428 41.9379 12.7416 43.8884 12.5395 45.8338C12.4218 46.9956 12.323 48.3013 12.3889 49.5722C11.7585 49.6663 11.1514 49.7794 10.5775 49.8971C6.64427 50.7207 1.8361 52.6083 0.970423 57.0518C0.203389 61.0245 0.979834 64.9925 4.67763 67.1532C6.05152 67.9533 7.86287 68.377 9.4154 68.6735C11.4761 69.0642 13.5934 69.3042 15.6775 69.4924C20.9897 69.9679 26.4043 70.1185 31.7368 70.1185C32.3263 70.1185 32.9167 70.1185 33.5076 70.1138C34.0995 70.1185 34.6904 70.1185 35.281 70.1185C40.6133 70.1185 46.028 69.9679 51.3402 69.4924C53.4263 69.3042 55.5429 69.0642 57.6019 68.6735C59.1535 68.377 60.9661 67.9533 62.3376 67.1532C66.0394 64.9925 66.8164 61.0245 66.0454 57.0518C65.1819 52.6083 60.3719 50.7208 56.4416 49.8971C55.8671 49.7794 55.2579 49.6663 54.6293 49.5722C54.6928 48.3013 54.5958 46.9956 54.4769 45.8339C54.2769 43.8884 53.9748 41.9379 53.6056 40.0178C53.1883 37.847 52.6744 35.6289 51.9735 33.5314C51.3496 31.6662 50.4439 29.4434 48.8293 28.2281C48.4699 27.9573 48.524 27.9941 48.1446 27.7888C46.9695 27.1534 45.997 27.1098 44.8293 26.9896C44.8063 26.8061 44.7733 26.622 44.7304 26.439C44.6293 26.0059 44.5178 25.5757 44.4162 25.1431C44.3875 25.022 44.3466 24.8667 44.3357 24.742C44.3198 24.5562 44.474 23.9569 44.5183 23.779C44.6713 23.1557 44.8684 22.6628 44.9502 21.995C45.1022 20.7529 44.9572 19.5011 44.3245 18.5051L44.3574 18.1864C44.6933 14.8991 43.1147 11.8616 40.4462 10.1242C40.3338 9.91755 40.2144 9.71466 40.0897 9.51322C40.2562 8.71922 40.2656 7.94856 40.1188 6.99692L40.1033 6.89376C39.9518 5.91134 39.7391 4.875 39.3661 3.95105C38.6669 2.22115 37.2621 0.897388 35.2842 0.896483C34.6283 0.89594 34.0356 1.04146 33.51 1.29846Z" fill="#5E239D"/>
</svg>
