<svg width="53" height="56" viewBox="0 0 53 56" fill="none" xmlns="http://www.w3.org/2000/svg">
<path fill-rule="evenodd" clip-rule="evenodd" d="M26.5086 0.753904C26.3185 1.0891 26.1459 1.45108 26.0396 1.81776C24.033 2.6514 22.7185 4.58509 22.9447 6.80493L23.2703 9.98872C22.3214 8.90332 22.2399 9.69461 22.3435 10.5375C22.3929 10.9424 22.5811 11.4196 22.6944 11.8804C23.2115 13.9803 22.9773 14.2166 22.4926 16.2948C22.209 17.5106 23.2732 16.959 23.7385 16.3847C23.8477 16.2495 23.9454 16.1013 24.0315 15.9422C24.0992 15.8169 24.16 15.6852 24.2136 15.5478C24.4601 16.0607 24.7758 16.4995 25.1658 16.8564C25.1908 17.2569 25.0228 17.5224 24.065 18.1061C20.32 20.388 18.2183 19.3129 16.9923 20.2351C15.1569 21.6166 13.3814 29.804 12.8252 35.2196C12.1684 41.6136 13.8456 40.9075 14.5716 42.0232C11.378 41.7689 1.99209 42.7339 1.20623 46.7725C0.561729 50.0862 1.46034 51.9361 3.11639 52.9059C5.77459 54.4544 15.9426 55.2687 26.5086 55.3534C37.0751 55.2687 47.244 54.4544 49.8993 52.9059C51.5579 51.9361 52.4541 50.0862 51.8105 46.7725C51.0261 42.7339 41.6402 41.7689 38.4461 42.0232C39.172 40.9075 40.8498 41.6136 40.1925 35.2196C39.6365 29.804 37.8608 21.6166 36.0255 20.2351C34.7993 19.3129 32.6977 20.388 28.9528 18.1061C27.9949 17.5224 27.8269 17.2569 27.8519 16.8564C28.2419 16.4995 28.5576 16.0607 28.8041 15.5478C28.8578 15.6852 28.9184 15.8169 28.9861 15.9422C29.0723 16.1013 29.1702 16.2495 29.2793 16.3847C29.7447 16.959 30.8089 17.5106 30.5251 16.2948C30.0406 14.2166 29.8062 13.9803 30.3233 11.8804C30.4366 11.4196 30.6248 10.9424 30.6742 10.5375C30.7778 9.69461 30.6963 8.90332 29.7474 9.98872L30.073 6.80493C30.2992 4.58509 28.9847 2.6514 26.9782 1.81776C26.8718 1.45108 26.6992 1.0891 26.5086 0.753904ZM15.0204 37.3866C15.1193 36.1021 15.5422 34.0372 15.779 32.3732C16.0658 30.3609 16.2208 30.2474 17.2097 32.277C17.6777 33.2383 18.5289 35.5866 18.5839 37.1654C18.7099 35.8719 19.099 33.944 19.3231 32.3732C19.61 30.3609 19.7644 30.2474 20.7533 32.277C21.3174 33.435 22.437 36.6058 22.0513 38.0173C21.906 38.5492 21.5033 38.9541 20.5298 38.8741C20.51 38.8741 18.8484 37.5985 18.5857 37.4054C18.581 37.6314 18.5566 37.8385 18.5077 38.0173C18.3622 38.5492 17.9595 38.9541 16.9862 38.8741C16.9655 38.8741 15.1907 37.5138 15.0204 37.3866ZM34.4319 37.4054C34.1699 37.5985 32.5076 38.8741 32.4879 38.8741C31.514 38.9541 31.1119 38.5492 30.9663 38.0173C30.5807 36.6058 31.7004 33.435 32.2644 32.277C33.2533 30.2474 33.4077 30.3609 33.6948 32.3732C33.9186 33.9443 34.3078 35.8724 34.4337 37.1654C34.4889 35.5872 35.34 33.2383 35.8082 32.277C36.7971 30.2474 36.9513 30.3609 37.2384 32.3732C37.4754 34.037 37.8984 36.1021 37.9972 37.3866C37.8269 37.5138 36.0523 38.8741 36.0315 38.8741C35.0576 38.9541 34.6554 38.5492 34.5101 38.0173C34.4611 37.8385 34.4366 37.6314 34.4319 37.4054Z" fill="#F4F4ED"/>
</svg>
