<svg width="70" height="70" viewBox="0 0 70 70" fill="none" xmlns="http://www.w3.org/2000/svg">
<circle cx="35" cy="35" r="35" fill="white"/>
<path d="M62.3758 46.5431C62.3758 46.5431 54.0935 45.2374 49.717 44.8629C45.5141 44.5036 40.5335 44.2961 35.1904 44.2961C29.8473 44.2961 24.8667 44.5036 20.665 44.8629C16.2873 45.2425 8.00623 47.0542 8.00623 47.0542V49.3315C8.00623 51.3558 20.1775 53.0005 35.1904 53.0005C50.2033 53.0005 62.3746 51.3558 62.3746 49.3315L62.3758 46.5431Z" fill="#F0D50C"/>
<path d="M26.8315 16.3363C16.9049 20.1 10.276 30.101 10.2754 41.3144V45.0694C13.8177 44.1689 17.4295 43.6116 21.0663 43.4045C21.0417 42.6842 21.0291 41.9584 21.0283 41.2271C21.0318 31.374 23.2671 22.5078 26.8315 16.3363Z" fill="#F0D50C"/>
<path d="M60.1035 41.3151C60.112 35.1622 58.1006 29.1994 54.4167 24.4568C56.0138 29.8844 56.8095 35.543 56.7756 41.2303C56.7756 42.2652 56.7507 43.2883 56.7007 44.2996C57.8344 44.4853 58.9574 44.7387 60.0643 45.0587L60.1035 41.3151Z" fill="#FFF04D"/>
<path d="M60.1035 41.3151C60.112 35.1622 58.1006 29.1994 54.4167 24.4568C56.0138 29.8844 56.8095 35.543 56.7756 41.2303C56.7756 42.2652 56.7507 43.2883 56.7007 44.2996C57.8344 44.4853 58.9574 44.7387 60.0643 45.0587L60.1035 41.3151Z" fill="#FFEA00"/>
<path d="M54.4163 24.4556C47.7414 15.8456 36.7167 12.6008 26.8326 16.337C23.2658 22.5085 21.0317 31.3747 21.0317 41.2291C21.0317 41.9604 21.0444 42.6861 21.0698 43.4064C24.7793 43.1015 29.0738 42.913 33.6727 42.8789C33.6727 42.8789 34.7177 42.8789 35.1921 42.8789C42.3856 42.787 49.5755 43.2636 56.7026 44.3047C56.751 43.2926 56.776 42.2695 56.7775 41.2354C56.8113 35.5458 56.0147 29.8851 54.4163 24.4556Z" fill="#FFF04D"/>
<path d="M45.2116 26.2091L43.6327 15.7083C43.5205 14.9357 43.0003 14.3009 42.2963 14.0775C37.6957 12.6408 32.8042 12.6408 28.2036 14.0775C27.5001 14.3013 26.9804 14.936 26.8684 15.7083L25.2883 26.2091" fill="#FFF04D"/>
<path d="M35.1925 42.6564C34.717 42.6564 34.245 42.6564 33.7765 42.6564H33.7242H33.6719C19.3652 42.7626 8.00719 44.3618 8.00719 46.319V49.1555C7.98401 49.3217 8.01731 49.4913 8.10111 49.6337C8.82772 49.053 9.66291 48.6449 10.5504 48.4369C12.8105 47.8517 15.1077 47.4424 17.4237 47.2122C18.739 47.0587 20.0528 47.515 21.0298 48.4647C22.8185 50.2073 25.1558 51.1737 27.5809 51.1735H42.7995C45.2246 51.1735 47.5618 50.2072 49.3506 48.4647C50.3274 47.5139 51.6419 47.0571 52.9578 47.211C55.2735 47.4411 57.5702 47.8504 59.83 48.4356C60.6704 48.6076 61.4642 48.9772 62.1532 49.5174C62.1924 49.5591 62.2376 49.5958 62.2721 49.6337C62.3565 49.4906 62.3902 49.3202 62.3672 49.153V46.3165C62.3755 44.2986 50.2042 42.6564 35.1925 42.6564Z" fill="#FFF04D"/>
<path d="M40.9188 34.233L35.1857 37.988V42.8652L40.9188 34.233Z" fill="#6E6F70"/>
<path d="M35.1917 42.8652V37.988L29.4586 34.233L35.1917 42.8652Z" fill="#0A0A0A"/>
<path d="M29.4586 32.0049L35.1917 35.5322V22.1379L29.4586 32.0049Z" fill="#0A0A0A"/>
<path d="M40.9188 32.0044L35.1857 22.1361V28.4758V35.5304L40.9188 32.0031V32.0044Z" fill="#6E6F70"/>
</svg>
