<svg width="70" height="70" viewBox="0 0 70 70" fill="none" xmlns="http://www.w3.org/2000/svg">
<circle cx="35" cy="35" r="35" fill="white"/>
<path d="M27.4588 49.2815V53.4942C27.4438 53.7544 27.4781 54.0151 27.5601 54.2639C27.6257 54.415 27.742 54.5412 27.8911 54.6229C28.0594 54.7175 28.2526 54.7646 28.4481 54.7587C28.6569 54.7641 28.8629 54.7122 29.0414 54.6092C29.1971 54.5204 29.3184 54.3859 29.3868 54.2261C29.4677 53.9366 29.5 53.6369 29.4827 53.3378V49.2815H30.7922V53.1643C30.8121 53.6218 30.7732 54.0799 30.6764 54.5284C30.5873 54.8019 30.4354 55.053 30.2315 55.2638C30.0235 55.4882 29.7643 55.6645 29.4736 55.7792C29.1564 55.8996 28.8168 55.9581 28.4753 55.951C28.0186 55.9608 27.5684 55.8476 27.1766 55.6246C26.8339 55.4337 26.5587 55.1502 26.3863 54.8102C26.2678 54.5654 26.1938 54.194 26.1641 53.6959L26.1569 53.5502C26.1559 53.5253 26.155 53.5002 26.1542 53.4747L26.1505 53.3187C26.1497 53.2655 26.1493 53.2112 26.1493 53.1557L26.1511 49.2815H27.4588ZM14.7891 49.2815V50.503H13.5412V55.7947H12.2172V50.503H11V49.2815H14.7891ZM18.07 49.2815H19.8208C20.5781 49.2815 21.1176 49.3456 21.4396 49.4739C21.7624 49.6045 22.0334 49.8288 22.2137 50.1148C22.4166 50.4328 22.5189 50.7996 22.5085 51.1714C22.5232 51.5531 22.4092 51.9293 22.1829 52.2451C21.9375 52.5543 21.5968 52.7831 21.2081 52.8997L22.8359 55.7947H21.4052L19.8624 53.0372H19.3759V55.7947H18.07V49.2815ZM38.148 49.2815V50.4893H36.0409V51.673H38.148V52.8636H36.0409V55.7947H34.7441V49.2815H38.148ZM45.1638 49.2815V50.4893H43.0567V51.673H45.1638V52.8636H43.0567V55.7947H41.7599V49.2815H45.1638ZM50.0707 49.2815V54.6126H51.9716V55.7947H48.7648V49.2815H50.0707ZM59 49.2815V50.4944H56.5529V51.673H59V52.8636H56.5529V54.5783H59V55.7947H55.2579V49.2815H59ZM20.0939 50.4824H19.3705L19.3759 51.8277H20.1518C20.5678 51.8277 20.8536 51.7761 21.0091 51.673C21.1747 51.5504 21.2633 51.3562 21.2442 51.1576C21.2486 51.0232 21.2081 50.8909 21.1285 50.7796C21.0525 50.6744 20.9437 50.5945 20.8174 50.5511C20.5813 50.4936 20.3374 50.4705 20.0939 50.4824Z" fill="#5E464D"/>
<path d="M34.9557 43.0965C45.0405 43.0965 53.2159 35.2399 53.2159 25.5482C53.2159 15.8566 45.0405 8 34.9557 8C24.8708 8 16.6955 15.8566 16.6955 25.5482C16.6955 35.2399 24.8708 43.0965 34.9557 43.0965Z" fill="#5E464D"/>
<path d="M29.2132 41.1087C29.9602 41.3509 32.4688 42.1258 32.5755 41.3681C32.6334 40.9523 31.3094 40.5263 29.517 39.6243C26.9678 38.3445 24.6357 36.7078 22.5989 34.7691C19.626 32.0001 17.9165 28.2329 17.8385 24.2786C17.6866 18.9698 19.8715 14.6781 23.4653 11.9086C19.0705 15.1307 16.4392 20.0633 16.303 25.3352C16.1963 29.1751 17.3267 32.4102 19.45 35.3549C20.1094 36.1639 20.8801 36.885 21.7416 37.499C23.7764 38.9611 26.7516 40.3132 29.2132 41.107" fill="white"/>
<path d="M53.4673 21.5263C52.3351 16.4684 48.8154 12.9274 44.1075 10.4259C47.7158 12.8604 52.78 18.0369 49.7867 22.6035C47.2545 26.2613 41.1051 25.5449 37.732 23.8062C33.7312 21.7445 28.7248 17.1058 33.6625 12.5718C36.8638 9.63736 47.0466 12.9274 45.2542 17.3136C44.2088 19.865 40.1393 19.298 38.3089 18.0507C36.9597 17.1298 35.8238 15.5475 36.4261 13.9136C36.6178 13.3896 36.5907 12.577 35.8112 13.1748C35.236 13.6215 34.9376 14.3569 34.8363 15.0441C33.9844 20.7635 44.7116 25.1978 47.8948 19.664C49.5461 16.7914 46.8693 12.6199 43.4998 10.9122C40.9677 9.62362 38.3324 8.7182 35.1022 8.93811C29.9366 9.28172 25.6031 12.357 25.0587 17.3703C24.5161 22.3527 28.0231 26.8368 32.1522 29.5187C36.493 32.3364 42.3278 34.1936 47.6669 32.5133C52.4526 31.0066 54.4295 25.7888 53.4673 21.5298" fill="white"/>
<path d="M46.7319 17.652C47.2455 14.3739 44.1256 12.1233 41.2444 11.101C37.8477 9.89839 33.3605 10.4241 30.8862 13.0957C29.0775 15.0577 29.1951 17.9063 30.1284 20.2119C31.5391 23.6944 34.7242 26.2114 38.4319 27.2989C41.0671 28.072 44.2522 28.4088 46.9218 27.5927C50.8158 26.4021 52.0837 22.545 51.2788 19.011C51.1065 18.247 50.8419 17.5044 50.4903 16.7981C49.9983 15.8171 48.4917 13.831 50.568 16.2501C50.7857 16.5196 50.9862 16.8013 51.1685 17.0936C51.5968 17.762 51.9364 18.4781 52.1795 19.2257C53.3118 22.5244 52.4237 26.3729 49.2857 28.3641C46.8784 29.888 43.8181 30.0701 41.0255 29.6887C37.2816 29.1733 33.7529 27.4552 31.3004 24.6909C29.0613 22.1705 27.533 18.5505 28.4536 15.2416C29.1282 12.8208 31.1973 11.0134 33.6752 10.2592C36.8096 9.29535 40.2605 9.74377 43.0802 11.3089C44.4946 12.0906 45.7932 13.173 46.5166 14.5921C46.8439 15.2314 47.0198 15.931 47.0321 16.6418C47.0393 16.9296 47.0157 17.2175 46.9616 17.5008C46.9417 17.6039 46.712 17.8942 46.7445 17.6554" fill="#3FE0C5"/>
</svg>
