<svg width="70" height="70" viewBox="0 0 70 70" fill="none" xmlns="http://www.w3.org/2000/svg">
<circle cx="35" cy="35" r="35" fill="white"/>
<path d="M18.6459 28.244V26.2486C18.6459 25.5243 18.2099 24.882 17.5422 24.595L5.21161 19.4973V20.6043L16.207 25.1553C16.5885 25.3056 16.5885 25.8523 16.207 26.0026L5.21161 30.5536V34.9953L11.8334 32.2483L16.1934 34.0523C16.5749 34.2027 16.5749 34.7493 16.1934 34.8996L5.21161 39.4507V46.489L17.5422 41.3913C18.2099 41.118 18.6459 40.462 18.6459 39.7376V35.1593C18.6459 34.435 18.2099 33.7927 17.5422 33.5057L13.1686 31.7016L17.5422 29.8976C18.2099 29.6243 18.6459 28.9683 18.6459 28.244Z" fill="black"/>
<path d="M24.9134 29.4603L26.8481 37.018L29.0145 29.4603H31.0855L33.1292 37.018L35.1457 29.4603H36.6717L34.0694 38.576H32.1346L29.9955 30.7177L27.7746 38.576H25.8126L23.292 29.4603H24.9134Z" fill="black"/>
<path d="M39.0016 34.4623C39.0561 35.214 39.1379 35.5967 39.3831 36.075C39.8327 36.936 40.8546 37.4963 41.8765 37.4963C43.1164 37.4963 43.9202 36.9087 44.2609 35.747H45.9504C45.528 37.715 44.0429 38.8083 41.8492 38.8083C39.1106 38.8083 37.3666 36.9223 37.3666 33.9703C37.3666 31.0867 39.1106 29.1597 41.713 29.1597C44.4789 29.1597 45.9776 31.0457 45.9776 34.435H39.0016V34.4623ZM43.8794 31.6743C43.457 30.95 42.5986 30.5127 41.713 30.5127C40.187 30.5127 39.2196 31.483 39.0289 33.2323H44.3154C44.2336 32.426 44.1246 32.0433 43.8794 31.6743Z" fill="black"/>
<path d="M47.5036 25.989H49.0569V30.827C49.6972 29.7473 50.5829 29.2417 51.8772 29.2417C54.1254 29.2417 55.7331 31.2097 55.7331 34.025C55.7331 36.8403 54.2071 38.7537 51.8909 38.7537C50.6237 38.7537 49.7926 38.248 48.9887 37.059V38.5623H47.49V25.989H47.5036ZM49.0841 33.984C49.0841 35.9793 50.215 37.4553 51.6865 37.4553C53.1035 37.4553 54.0436 36.116 54.0436 34.0387C54.0436 31.8657 53.1035 30.5127 51.632 30.5127C50.1605 30.5127 49.0841 31.934 49.0841 33.984Z" fill="black"/>
<path d="M58.5535 34.7357C58.5262 36.3484 59.5481 37.4007 61.1558 37.4007C62.6001 37.4007 63.6492 36.485 63.6492 35.2277C63.6492 33.943 62.6546 33.1504 61.0469 33.1504C60.8834 33.1504 60.7471 33.1504 60.5155 33.1777V31.7837C60.7062 31.7837 60.8152 31.7837 60.9242 31.7837C62.5865 31.7837 63.5539 31.0594 63.5539 29.761C63.5539 28.5447 62.6137 27.7657 61.1967 27.7657C59.6707 27.7657 58.7851 28.6814 58.7306 30.294H57.0683C57.1773 27.793 58.7033 26.3444 61.224 26.3444C63.5538 26.3444 65.1889 27.6837 65.1889 29.6244C65.1889 30.909 64.276 32.098 63.0497 32.426C64.5485 32.8087 65.3523 33.82 65.3523 35.337C65.3523 37.387 63.6084 38.8357 61.1422 38.8357C58.5671 38.8357 56.8231 37.1684 56.8504 34.7494C56.8367 34.7357 58.5535 34.7357 58.5535 34.7357Z" fill="black"/>
</svg>
