<svg width="24" height="28" viewBox="0 0 24 28" fill="none" xmlns="http://www.w3.org/2000/svg">
<path d="M21.0058 14.6814L12.5051 23.4216C11.3906 24.4382 9.93989 24.9794 8.44961 24.9343C6.95933 24.8893 5.54212 24.2615 4.48787 23.1793C3.43363 22.0971 2.82202 20.6424 2.77815 19.1126C2.73428 17.5828 3.26147 16.0937 4.25187 14.9497L15.2561 3.65385C15.9131 3.01324 16.7847 2.65605 17.6908 2.65605C18.597 2.65605 19.4685 3.01324 20.1255 3.65385C20.7656 4.31973 21.1245 5.21758 21.1245 6.15306C21.1245 7.08854 20.7656 7.98638 20.1255 8.65226L10.6343 18.3808C10.5404 18.4846 10.4275 18.5685 10.302 18.6275C10.1765 18.6865 10.0409 18.7196 9.90294 18.7249C9.76499 18.7301 9.62739 18.7074 9.49799 18.6581C9.36858 18.6087 9.24992 18.5337 9.14876 18.4373C9.0476 18.3409 8.96594 18.2249 8.90843 18.0961C8.85092 17.9673 8.81869 17.8281 8.81358 17.6865C8.80847 17.5449 8.83058 17.4037 8.87865 17.2708C8.92672 17.138 8.99981 17.0162 9.09374 16.9123L16.1502 9.68301C16.4092 9.41713 16.5547 9.05651 16.5547 8.6805C16.5547 8.30449 16.4092 7.94388 16.1502 7.67799C15.8912 7.41211 15.5399 7.26274 15.1736 7.26274C14.8073 7.26274 14.456 7.41211 14.197 7.67799L7.14048 14.9356C6.78739 15.2952 6.50714 15.723 6.3159 16.1944C6.12465 16.6657 6.02619 17.1713 6.02619 17.6819C6.02619 18.1925 6.12465 18.698 6.3159 19.1694C6.50714 19.6407 6.78739 20.0685 7.14048 20.4282C7.86178 21.1334 8.81974 21.5268 9.81589 21.5268C10.812 21.5268 11.77 21.1334 12.4913 20.4282L21.9687 10.6855C23.0621 9.48102 23.6573 7.88792 23.629 6.24182C23.6007 4.59573 22.9511 3.02516 21.817 1.86102C20.6829 0.696872 19.1529 0.0300333 17.5493 0.000989913C15.9457 -0.0280535 14.3937 0.582966 13.2203 1.70532L2.21609 13.0012C0.732163 14.6882 -0.0603773 16.898 0.00359184 19.1701C0.067561 21.4421 0.983106 23.6012 2.55947 25.1975C4.13584 26.7938 6.25145 27.7042 8.46551 27.739C10.6796 27.7737 12.8213 26.9303 14.4446 25.3842L22.9591 16.6582C23.0873 16.5265 23.1891 16.3702 23.2585 16.1982C23.3279 16.0262 23.3636 15.8419 23.3636 15.6557C23.3636 15.4695 23.3279 15.2851 23.2585 15.1131C23.1891 14.9411 23.0873 14.7848 22.9591 14.6532C22.8308 14.5215 22.6786 14.4171 22.511 14.3458C22.3434 14.2746 22.1638 14.2379 21.9825 14.2379C21.8011 14.2379 21.6215 14.2746 21.4539 14.3458C21.2863 14.4171 21.1341 14.5215 21.0058 14.6532V14.6814Z" fill="#E0F5E9"/>
</svg>
