<svg width="25" height="25" viewBox="0 0 25 25" fill="none" xmlns="http://www.w3.org/2000/svg">
<path d="M12.5 1.5625C10.6358 1.56457 8.84861 2.30602 7.53044 3.62419C6.21227 4.94236 5.47082 6.72958 5.46875 8.59375V16.4062C5.46875 18.2711 6.20954 20.0595 7.52816 21.3781C8.84677 22.6967 10.6352 23.4375 12.5 23.4375C14.3648 23.4375 16.1532 22.6967 17.4718 21.3781C18.7905 20.0595 19.5312 18.2711 19.5312 16.4062V8.59375C19.5292 6.72958 18.7877 4.94236 17.4696 3.62419C16.1514 2.30602 14.3642 1.56457 12.5 1.5625ZM17.9688 16.4062C17.9688 17.8567 17.3926 19.2477 16.367 20.2732C15.3414 21.2988 13.9504 21.875 12.5 21.875C11.0496 21.875 9.6586 21.2988 8.63301 20.2732C7.60742 19.2477 7.03125 17.8567 7.03125 16.4062V8.59375C7.03125 7.14335 7.60742 5.75235 8.63301 4.72676C9.6586 3.70117 11.0496 3.125 12.5 3.125C13.9504 3.125 15.3414 3.70117 16.367 4.72676C17.3926 5.75235 17.9688 7.14335 17.9688 8.59375V16.4062Z" fill="white"/>
<path d="M12.5 6.25C12.2928 6.25 12.0941 6.33231 11.9476 6.47882C11.8011 6.62534 11.7188 6.82405 11.7188 7.03125V10.1562C11.7188 10.3635 11.8011 10.5622 11.9476 10.7087C12.0941 10.8552 12.2928 10.9375 12.5 10.9375C12.7072 10.9375 12.9059 10.8552 13.0524 10.7087C13.1989 10.5622 13.2812 10.3635 13.2812 10.1562V7.03125C13.2812 6.82405 13.1989 6.62534 13.0524 6.47882C12.9059 6.33231 12.7072 6.25 12.5 6.25Z" fill="white"/>
</svg>
