<svg width="70" height="70" viewBox="0 0 70 70" fill="none" xmlns="http://www.w3.org/2000/svg">
<circle cx="35" cy="35" r="35" fill="white"/>
<path d="M68 44.9281C34.5402 48.8515 10.6584 53.5638 10.3051 34.2216C10.3051 34.2216 11.0352 26.727 21.2804 26.2551C21.2804 26.2551 21.6258 19.5987 29.453 18.8451C33.661 18.4365 38.442 22.3247 38.9602 26.4171C38.9602 26.4171 49.3153 24.6984 49.7628 33.7567C49.9198 36.9123 49.1269 42.2797 39.1408 42.0472C39.1408 42.0472 33.3626 41.3428 32.5776 33.327C30.9525 48.8444 55.957 47.9428 56.3181 33.8483C56.4751 27.7554 52.1258 21.4865 42.3282 22.6628C36.9583 10.5405 22.6621 11.2378 17.3393 22.4796C9.73197 22.4796 3.91459 27.7343 4.00095 34.5949C4.29143 56.6771 38.5441 50.0207 68 44.9281Z" fill="#24339B"/>
</svg>
