<svg width="70" height="70" viewBox="0 0 70 70" fill="none" xmlns="http://www.w3.org/2000/svg">
<path d="M35 70C54.33 70 70 54.33 70 35C70 15.67 54.33 0 35 0C15.67 0 0 15.67 0 35C0 54.33 15.67 70 35 70Z" fill="#233447"/>
<path d="M54.2175 16.3678L37.8889 28.3462L40.9248 21.2871L54.2175 16.3678Z" fill="#E17726" stroke="#E17726" stroke-width="0.25" stroke-linecap="round" stroke-linejoin="round"/>
<path d="M16.5539 16.3678L32.7372 28.4583L29.8466 21.2871L16.5539 16.3678ZM48.3399 44.1431L43.9947 50.7227L53.298 53.262L55.9622 44.2862L48.3399 44.1431ZM14.8258 44.2862L17.4739 53.262L26.7609 50.7227L22.4332 44.142L14.8258 44.2862Z" fill="#E27625" stroke="#E27625" stroke-width="0.25" stroke-linecap="round" stroke-linejoin="round"/>
<path d="M26.2585 33.0261L23.6763 36.8904L32.8825 37.3055L32.5754 27.4819L26.2585 33.0261ZM44.5091 33.0261L38.0978 27.3722L37.8878 37.3069L47.0939 36.8915L44.5091 33.0261ZM26.7595 50.7224L32.3317 48.0551L27.5353 44.35L26.7595 50.7224ZM38.4373 48.0551L43.9932 50.7224L43.2348 44.35L38.4373 48.0551Z" fill="#E27625" stroke="#E27625" stroke-width="0.25" stroke-linecap="round" stroke-linejoin="round"/>
<path d="M43.9946 50.7226L38.4374 48.0553L38.8909 51.6337L38.8413 53.1496L43.9946 50.7226ZM26.7607 50.7226L31.9288 53.1509L31.8965 51.6337L32.3329 48.0553L26.7607 50.7226Z" fill="#D5BFB2" stroke="#D5BFB2" stroke-width="0.25" stroke-linecap="round" stroke-linejoin="round"/>
<path d="M32.0246 41.9864L27.4059 40.6452L30.6682 39.1598L32.0246 41.9864ZM38.7443 41.9864L40.0995 39.1598L43.379 40.6452L38.7443 41.9864Z" fill="#233447" stroke="#233447" stroke-width="0.25" stroke-linecap="round" stroke-linejoin="round"/>
<path d="M26.7605 50.7227L27.5687 44.1434L22.4328 44.2862L26.7605 50.7227ZM43.2026 44.1434L43.9943 50.7227L48.3381 44.2862L43.2026 44.1434ZM47.0964 36.8907L37.8889 37.3072L38.7453 41.9864L40.1006 39.1598L43.3801 40.6452L47.0964 36.8907ZM27.407 40.6452L30.6693 39.1598L32.0257 41.9864L32.8823 37.3072L23.6761 36.8918L27.407 40.6452Z" fill="#CC6228" stroke="#CC6228" stroke-width="0.25" stroke-linecap="round" stroke-linejoin="round"/>
<path d="M23.6763 36.8907L27.5365 44.3503L27.4072 40.6452L23.6763 36.8907ZM43.3804 40.6452L43.2351 44.3503L47.0953 36.8918L43.3804 40.6452ZM32.8825 37.3072L32.0259 41.9864L33.1075 47.5132L33.3512 40.2287L32.8825 37.3072ZM37.8889 37.3072L37.4363 40.2136L37.6628 47.5132L38.7443 41.9864L37.8889 37.3072Z" fill="#E27525" stroke="#E27525" stroke-width="0.25" stroke-linecap="round" stroke-linejoin="round"/>
<path d="M38.7443 41.9867L37.6628 47.5136L38.4374 48.0557L43.2338 44.3506L43.379 40.6455L38.7443 41.9867ZM27.4059 40.6455L27.5353 44.3506L32.3317 48.0557L33.1075 47.5136L32.0258 41.9867L27.4059 40.6455Z" fill="#F5841F" stroke="#F5841F" stroke-width="0.25" stroke-linecap="round" stroke-linejoin="round"/>
<path d="M38.8413 53.151L38.8909 51.6334L38.4706 51.2823H32.3005L31.8965 51.6334L31.9288 53.1496L26.7607 50.7227L28.5696 52.192L32.2371 54.7001H38.5193L42.2016 52.192L43.9946 50.7227L38.8413 53.151Z" fill="#C0AC9D" stroke="#C0AC9D" stroke-width="0.25" stroke-linecap="round" stroke-linejoin="round"/>
<path d="M38.4381 48.055L37.6621 47.5125H33.1095L32.3337 48.055L31.8986 51.633L32.3014 51.2816H38.4717L38.8917 51.633L38.4381 48.055Z" fill="#161616" stroke="#161616" stroke-width="0.25" stroke-linecap="round" stroke-linejoin="round"/>
<path d="M54.9126 29.1289L56.2839 22.5185L54.2175 16.3678L38.4384 27.9468L44.5116 33.0251L53.0877 35.5026L54.9773 33.3135L54.1531 32.7219L55.4621 31.5411L54.46 30.7744L55.768 29.7834L54.9126 29.1289ZM14.4861 22.5172L15.8747 29.1289L14.9871 29.7846L16.3111 30.7744L15.3103 31.5411L16.6182 32.7231L15.7939 33.3148L17.6837 35.5016L26.2608 33.0264L32.3328 27.948L16.5536 16.3678L14.4861 22.5172Z" fill="#763E1A" stroke="#763E1A" stroke-width="0.25" stroke-linecap="round" stroke-linejoin="round"/>
<path d="M53.087 35.5019L44.5113 33.0267L47.0946 36.8921L43.2345 44.3506L48.3392 44.2866H55.9615L53.087 35.5019ZM26.2591 33.0267L17.6832 35.5019L14.8237 44.2866H22.4324L27.5359 44.3506L23.6756 36.8921L26.2591 33.0267ZM37.8886 37.3076L38.4381 27.9472L40.9245 21.2875H29.8458L32.3323 27.9472L32.8818 37.3076L33.0919 40.2462L33.1081 47.5136H37.6621L37.6782 40.2462L37.8886 37.3076Z" fill="#F5841F" stroke="#F5841F" stroke-width="0.25" stroke-linecap="round" stroke-linejoin="round"/>
</svg>
